<svg width="38" height="38" viewBox="0 0 38 38" fill="none" xmlns="http://www.w3.org/2000/svg">
<g clip-path="url(#clip0_129_718)">
<path d="M25.5383 18.1463C25.1746 17.8346 24.7219 17.6787 24.1875 17.6787C23.6086 17.6787 23.1559 17.842 22.8293 18.176C22.5102 18.51 22.3098 18.9553 22.2207 19.5193H26.132C26.1023 18.9182 25.8945 18.4654 25.5383 18.1463Z" fill="white"/>
<path d="M15.9051 19.7497C15.623 19.6235 15.2371 19.5567 14.7324 19.5493H11.8379V22.6813H14.6953C15.2074 22.6813 15.6008 22.6146 15.8828 22.4735C16.4023 22.2138 16.6547 21.7313 16.6547 21.0114C16.6547 20.4028 16.4023 19.9798 15.9051 19.7497Z" fill="white"/>
<path d="M19 0C8.50547 0 0 8.50547 0 19C0 29.4945 8.50547 38 19 38C29.4945 38 38 29.4945 38 19C38 8.50547 29.4945 0 19 0ZM21.6422 13.5301H26.6742V14.9922H21.6422V13.5301ZM18.6066 23.0523C18.384 23.416 18.1094 23.7277 17.7754 23.9727C17.4043 24.2621 16.959 24.4551 16.4469 24.5664C15.9348 24.6703 15.3855 24.7223 14.7844 24.7223H9.5V12.9809H15.1777C16.6102 13.0031 17.627 13.4187 18.2207 14.2352C18.577 14.7324 18.7551 15.3336 18.7551 16.0312C18.7551 16.7437 18.577 17.3227 18.2133 17.7605C18.0129 18.0055 17.7086 18.2281 17.3152 18.4285C17.9164 18.6512 18.3691 18.9926 18.6734 19.4676C18.9777 19.9426 19.1336 20.5141 19.1336 21.1895C19.1336 21.8723 18.9555 22.4957 18.6066 23.0523ZM28.5 21.0188H22.1766C22.2137 21.8871 22.5105 22.5031 23.082 22.852C23.4309 23.0672 23.8465 23.1785 24.3363 23.1785C24.8484 23.1785 25.2715 23.0449 25.598 22.7777C25.7762 22.6367 25.932 22.4363 26.0656 22.1766H28.3813C28.3219 22.6887 28.0398 23.2156 27.5426 23.75C26.7633 24.5961 25.6797 25.0191 24.277 25.0191C23.1191 25.0191 22.1023 24.6629 21.2191 23.9504C20.3359 23.2379 19.8906 22.0801 19.8906 20.477C19.8906 18.9703 20.2914 17.8199 21.0855 17.0184C21.8871 16.2168 22.9187 15.816 24.1879 15.816C24.9449 15.816 25.6277 15.9496 26.2289 16.2242C26.8375 16.4914 27.3348 16.9219 27.7281 17.5082C28.0844 18.0203 28.3145 18.6215 28.4184 19.3043C28.4852 19.6977 28.5074 20.2691 28.5 21.0188Z" fill="white"/>
<path d="M15.9426 17.3154C16.2617 17.1225 16.4176 16.7736 16.4176 16.2838C16.4176 15.7346 16.2098 15.3783 15.7867 15.2002C15.423 15.0814 14.9629 15.0146 14.3988 15.0146H11.8457V17.6049H14.6957C15.2078 17.6123 15.616 17.5158 15.9426 17.3154Z" fill="white"/>
</g>
<defs>
<clipPath id="clip0_129_718">
<rect width="38" height="38" fill="white"/>
</clipPath>
</defs>
</svg>
