<svg width="38" height="38" viewBox="0 0 38 38" fill="none" xmlns="http://www.w3.org/2000/svg">
<path d="M19.0003 3.22998C10.292 3.22998 3.16699 10.3391 3.16699 19.095C3.16699 27.0117 8.96199 33.5825 16.5303 34.77V23.6867H12.5087V19.095H16.5303V15.5958C16.5303 11.6216 18.8895 9.43665 22.5153 9.43665C24.2412 9.43665 26.0462 9.73748 26.0462 9.73748V13.6483H24.0512C22.0878 13.6483 21.4703 14.8675 21.4703 16.1183V19.095H25.872L25.1595 23.6867H21.4703V34.77C25.2013 34.1807 28.5988 32.2771 31.0493 29.4025C33.4999 26.5281 34.8422 22.8722 34.8337 19.095C34.8337 10.3391 27.7087 3.22998 19.0003 3.22998Z" fill="white"/>
</svg>
