<?xml version="1.0" encoding="utf-8"?>
<!-- Generator: Adobe Illustrator 25.2.0, SVG Export Plug-In . SVG Version: 6.00 Build 0)  -->
<svg version="1.1" id="Layer_1" xmlns="http://www.w3.org/2000/svg" xmlns:xlink="http://www.w3.org/1999/xlink" x="0px" y="0px"
	 viewBox="0 0 1152 1152" style="enable-background:new 0 0 1152 1152;" xml:space="preserve">
<style type="text/css">
	.st0{fill:#C0924B;}
</style>
<path class="st0" d="M245.95,271.73c120.37,0.01,240.75-0.46,361.12,0.16c138.62,0.72,261.85,99.84,290.83,235.43
	c24.2,113.23-5.54,211.67-89.35,292.11c-45.29,43.47-100.26,68.8-162.56,77.73c-8.75,1.25-17.54,2.19-26.31,3.27
	c-29.16,0-58.31,0-87.47,0c-1.45-1.22-3.24-0.88-4.9-0.95c-10.79-0.41-21.48-1.87-32.05-3.88
	c-74.03-14.09-135.12-50.2-182.52-108.79c-34.75-42.95-55.98-92.02-63.6-146.83c-1.19-8.56-2.14-17.16-3.2-25.73
	C245.95,486.74,245.95,379.24,245.95,271.73z M478.38,364.85c-42.02,0-84.03,0.09-126.05-0.11c-5.03-0.02-6.56,1.06-6.55,6.39
	c0.21,62.81,0.17,125.63,0.1,188.44c-0.01,11.19,0.74,22.34,2.57,33.33c11.1,66.74,44.64,119.34,100.89,156.94
	c55.39,37.03,117.08,44.69,181.11,33.92C740.17,765.3,821.56,659.8,800.98,539.93c-17.56-102.25-105.31-174.99-209.05-175.08
	C554.08,364.83,516.23,364.85,478.38,364.85z"/>
</svg>
