<svg width="38" height="38" viewBox="0 0 38 38" fill="none" xmlns="http://www.w3.org/2000/svg">
<g clip-path="url(#clip0_129_708)">
<path d="M20.2863 0.0390625C29.9277 0.0390625 37.8162 7.9275 37.8162 17.5689V20.3078C37.8162 29.9492 29.9277 37.8377 20.2863 37.8377H17.5474C7.90601 37.8377 0.0175781 29.9492 0.0175781 20.3078V17.5689C0.0175781 7.9275 7.90601 0.0390625 17.5474 0.0390625H20.2863ZM19.2615 9.53938L19.0176 9.53906C16.9867 9.53906 14.9558 9.60619 14.9558 9.60619C11.9894 9.60619 9.58471 12.0109 9.58471 14.9772C9.58471 14.9772 9.52306 16.7211 9.51792 18.5929L9.51758 18.8377C9.51758 20.9334 9.58471 23.1009 9.58471 23.1009C9.58471 26.0672 11.9894 28.4719 14.9558 28.4719C14.9558 28.4719 16.8546 28.5391 18.8162 28.5391C20.912 28.5391 23.1466 28.4719 23.1466 28.4719C26.1129 28.4719 28.4505 26.1344 28.4505 23.1681C28.4505 23.1681 28.5176 21.025 28.5176 18.972L28.5164 18.4902C28.5073 16.6481 28.4504 14.9101 28.4504 14.9101C28.4504 11.9437 26.1129 9.60619 23.1465 9.60619C23.1465 9.60619 21.213 9.54433 19.2615 9.53938ZM19.0176 11.249C20.683 11.249 22.8182 11.3041 22.8182 11.3041C25.2507 11.3041 26.7525 12.8059 26.7525 15.2383C26.7525 15.2383 26.8076 17.3372 26.8076 18.9839C26.8076 20.6674 26.7525 22.8397 26.7525 22.8397C26.7525 25.2721 25.2507 26.7739 22.8182 26.7739C22.8182 26.7739 20.9299 26.8202 19.2915 26.8279L18.8524 26.829C17.2439 26.829 15.284 26.7739 15.284 26.7739C12.8517 26.7739 11.2827 25.2049 11.2827 22.7725C11.2827 22.7725 11.2276 20.5924 11.2276 18.8739C11.2276 17.2654 11.2827 15.2383 11.2827 15.2383C11.2827 12.8059 12.8517 11.3041 15.284 11.3041C15.284 11.3041 17.3522 11.249 19.0176 11.249ZM19.0175 14.1726C16.3299 14.1726 14.1511 16.3513 14.1511 19.039C14.1511 21.7267 16.3299 23.9054 19.0175 23.9054C21.7052 23.9054 23.884 21.7267 23.884 19.039C23.884 16.3513 21.7052 14.1726 19.0175 14.1726ZM19.0175 15.8723C20.7665 15.8723 22.1842 17.2901 22.1842 19.039C22.1842 20.7879 20.7665 22.2057 19.0175 22.2057C17.2687 22.2057 15.8509 20.7879 15.8509 19.039C15.8509 17.2901 17.2686 15.8723 19.0175 15.8723ZM24.1168 12.8221C23.4674 12.8221 22.941 13.3512 22.941 14.0038C22.941 14.6564 23.4674 15.1854 24.1168 15.1854C24.7662 15.1854 25.2926 14.6564 25.2926 14.0038C25.2926 13.3511 24.7662 12.8221 24.1168 12.8221Z" fill="white"/>
</g>
<defs>
<clipPath id="clip0_129_708">
<rect width="38" height="38" fill="white"/>
</clipPath>
</defs>
</svg>
