<svg width="38" height="38" viewBox="0 0 38 38" fill="none" xmlns="http://www.w3.org/2000/svg">
<g clip-path="url(#clip0_129_715)">
<path d="M19 0C8.50547 0 0 8.50547 0 19C0 29.4945 8.50547 38 19 38C29.4945 38 38 29.4945 38 19C38 8.50547 29.4945 0 19 0ZM13.6859 26.9488H9.98242V15.0961H13.6859V26.9488ZM11.734 13.6117H11.7043C10.3609 13.6117 9.49258 12.7063 9.49258 11.5559C9.49258 10.3832 10.3906 9.5 11.7562 9.5C13.1219 9.5 13.9605 10.3832 13.9902 11.5559C13.9977 12.6988 13.1293 13.6117 11.734 13.6117ZM28.5 26.9488H24.2992V20.8184C24.2992 19.2152 23.6461 18.1168 22.1988 18.1168C21.093 18.1168 20.477 18.859 20.1949 19.5715C20.091 19.8238 20.1059 20.1801 20.1059 20.5437V26.9488H15.9422C15.9422 26.9488 15.9941 16.0832 15.9422 15.0961H20.1059V16.959C20.3508 16.1426 21.6793 14.9848 23.802 14.9848C26.4367 14.9848 28.5 16.6918 28.5 20.3582V26.9488Z" fill="white"/>
</g>
<defs>
<clipPath id="clip0_129_715">
<rect width="38" height="38" fill="white"/>
</clipPath>
</defs>
</svg>
