<?xml version="1.0" encoding="utf-8"?>
<!-- Generator: Adobe Illustrator 25.2.0, SVG Export Plug-In . SVG Version: 6.00 Build 0)  -->
<svg version="1.1" id="Layer_1" xmlns="http://www.w3.org/2000/svg" xmlns:xlink="http://www.w3.org/1999/xlink" x="0px" y="0px"
	 viewBox="0 0 576 576" style="enable-background:new 0 0 576 576;" xml:space="preserve">
<style type="text/css">
	.st0{fill:#C0924B;}
	.st1{fill:#FFFFFF;}
</style>
<g>
	<path class="st0" d="M58.74,256.12c12.63,0,25.27-0.05,37.9,0.02c14.55,0.08,27.48,10.48,30.52,24.71
		c2.54,11.88-0.58,22.21-9.38,30.66c-4.75,4.56-10.52,7.22-17.06,8.16c-0.92,0.13-1.84,0.23-2.76,0.34c-3.06,0-6.12,0-9.18,0
		c-0.15-0.13-0.34-0.09-0.51-0.1c-1.13-0.04-2.25-0.2-3.36-0.41c-7.77-1.48-14.18-5.27-19.15-11.42c-3.65-4.51-5.87-9.66-6.67-15.41
		c-0.12-0.9-0.22-1.8-0.34-2.7C58.74,278.68,58.74,267.4,58.74,256.12z M83.13,265.89c-4.41,0-8.82,0.01-13.23-0.01
		c-0.53,0-0.69,0.11-0.69,0.67c0.02,6.59,0.02,13.18,0.01,19.78c0,1.17,0.08,2.34,0.27,3.5c1.17,7,4.69,12.52,10.59,16.47
		c5.81,3.89,12.29,4.69,19.01,3.56c11.51-1.94,20.06-13.01,17.9-25.59c-1.84-10.73-11.05-18.36-21.94-18.37
		C91.07,265.89,87.1,265.89,83.13,265.89z"/>
	<path class="st1" d="M212.17,256c0.26,0.22,0.59,0.12,0.89,0.2c1.73,0.5,2.66,1.9,2.47,3.81c-0.16,1.58-1.44,2.77-3.12,2.89
		c-0.63,0.04-1.27,0.03-1.89-0.16c-1.55-0.48-2.42-1.85-2.28-3.6c0.13-1.63,1.21-2.77,2.85-3.03c0.12-0.02,0.29,0.06,0.36-0.12
		C211.69,256,211.93,256,212.17,256z"/>
	<path class="st1" d="M238.99,320c0.03-0.04,0.05-0.07,0.08-0.11c1.1,0,2.2,0,3.3,0c0.03,0.04,0.05,0.07,0.08,0.11
		C241.29,320,240.14,320,238.99,320z"/>
	<path class="st1" d="M242.37,319.89c-1.1,0-2.2,0-3.3,0c-5.52-0.29-10.46-2.18-14.89-5.46c-0.46-0.34-0.89-0.73-1.36-1.06
		c-0.32-0.22-0.27-0.38-0.07-0.66c0.87-1.18,1.73-2.37,2.56-3.58c0.25-0.36,0.39-0.35,0.71-0.08c2.67,2.31,5.63,4.1,9.06,5.04
		c3.98,1.08,7.97,1.27,11.85-0.3c4.42-1.79,6.78-5.22,7.44-9.89c0.24-1.68,0.11-3.36,0.15-5.17c-3.86,4.43-8.68,6.53-14.42,6.5
		c-5.76-0.03-10.61-2.11-14.3-6.59c-5.86-7.12-5.29-19.08,1.77-25.61c6.92-6.41,20.18-6.64,27.03,1.95
		c0.14-0.27,0.07-0.55,0.08-0.81c0.02-1.51,0.04-3.02,0.04-4.53c0-0.35,0.07-0.48,0.45-0.47c1.45,0.02,2.9,0.02,4.35,0
		c0.38-0.01,0.46,0.11,0.46,0.47c-0.01,10.78,0.03,21.57-0.03,32.35c-0.03,4.38-1.27,8.4-4.16,11.81c-2.56,3.02-5.89,4.75-9.71,5.6
		C244.85,319.67,243.62,319.85,242.37,319.89z M254.51,286.88c0.01-7.66-5.89-13.58-13.53-13.6c-7.98-0.02-13.77,5.66-13.8,13.51
		c-0.02,7.83,5.74,13.64,13.55,13.66C248.63,300.47,254.5,294.69,254.51,286.88z"/>
	<path class="st1" d="M365.37,275.23c1.97-2.53,4.37-4.39,7.29-5.54c9.98-3.93,22.17,0.78,24.88,13.14
		c1.13,5.16,0.64,10.19-2.02,14.85c-2.87,5.03-7.22,8.02-12.95,8.87c-5.41,0.8-10.31-0.45-14.58-3.93
		c-0.46-0.38-0.89-0.79-1.31-1.22c-0.4-0.4-0.77-0.84-1.22-1.33c-0.01,0.28-0.03,0.49-0.03,0.69c0,5.9-0.01,11.8,0.01,17.69
		c0,0.55-0.14,0.7-0.69,0.69c-1.39-0.04-2.78-0.03-4.17,0c-0.45,0.01-0.61-0.08-0.6-0.57c0.03-1.81,0.01-3.61,0.01-5.42
		c0-14.42,0-28.84-0.02-43.25c0-0.63,0.18-0.74,0.75-0.72c1.35,0.04,2.7,0.03,4.05,0.01c0.37-0.01,0.46,0.11,0.46,0.47
		c-0.01,1.65,0.01,3.3,0.03,4.94C365.27,274.77,365.21,274.97,365.37,275.23z M392.72,287.68c-0.03-0.87-0.06-1.72-0.2-2.57
		c-0.08-0.47-0.17-0.94-0.29-1.39c-1.49-5.82-6.18-9.76-11.81-10.24c-4.02-0.35-7.68,0.56-10.67,3.34
		c-4.21,3.92-5.42,8.87-4.18,14.35c2.02,8.92,11.2,12.67,18.88,9.42C390.05,298.22,392.51,293.61,392.72,287.68z"/>
	<path class="st1" d="M156.01,289.62c-5.09,0-10.17,0-15.26,0c-0.82,0-0.82,0-0.67,0.82c1.12,6.16,5.2,10.27,11.4,11.21
		c4.32,0.65,8.36-0.26,11.93-2.88c1.23-0.9,2.25-2.01,3.1-3.27c0.21-0.31,0.35-0.37,0.67-0.14c1.13,0.81,2.27,1.6,3.42,2.37
		c0.3,0.2,0.39,0.34,0.14,0.68c-3.19,4.43-7.46,7.13-12.86,8c-4.53,0.73-8.95,0.41-13.11-1.65c-5.5-2.72-8.77-7.17-9.85-13.18
		c-0.89-4.95-0.34-9.73,2.23-14.14c2.92-5,7.32-7.93,13.02-8.83c4.72-0.75,9.27-0.15,13.43,2.32c4.54,2.71,7.14,6.8,8.16,11.94
		c0.39,1.98,0.43,3.98,0.35,5.99c-0.02,0.53-0.14,0.77-0.78,0.76C166.22,289.61,161.11,289.62,156.01,289.62z M153.44,284.93
		c4.11,0,8.22,0,12.33,0c1.16,0,1.18,0,0.97-1.15c-0.54-2.97-1.8-5.56-4.19-7.51c-3.34-2.72-7.23-3.39-11.37-2.83
		c-5.78,0.79-10.11,5.13-11.05,10.88c-0.1,0.59,0.07,0.63,0.56,0.63C144.95,284.93,149.2,284.93,153.44,284.93z"/>
	<path class="st1" d="M501.11,289.62c-5.11,0-10.21,0.01-15.32-0.01c-0.57,0-0.69,0.15-0.62,0.69c0.76,5.54,4.9,10.11,10.4,11.19
		c4.99,0.98,9.62,0.04,13.63-3.26c0.94-0.77,1.73-1.69,2.41-2.7c0.22-0.32,0.36-0.4,0.71-0.15c1.11,0.8,2.23,1.58,3.37,2.34
		c0.33,0.22,0.41,0.37,0.15,0.72c-3.2,4.43-7.47,7.12-12.88,7.99c-4.75,0.76-9.34,0.36-13.64-1.93c-5.18-2.77-8.26-7.12-9.29-12.87
		c-0.86-4.76-0.4-9.38,1.96-13.68c2.88-5.26,7.36-8.37,13.27-9.32c5.02-0.8,9.82-0.09,14.14,2.74c4.15,2.72,6.52,6.66,7.47,11.48
		c0.39,1.98,0.43,3.98,0.36,5.99c-0.02,0.56-0.15,0.8-0.81,0.79C511.32,289.61,506.21,289.62,501.11,289.62z M498.57,284.93
		c4.11,0,8.22,0,12.33,0c1.15,0,1.18,0,0.96-1.16c-0.55-2.97-1.8-5.56-4.19-7.5c-3.34-2.72-7.23-3.39-11.37-2.83
		c-5.79,0.79-10.11,5.13-11.04,10.88c-0.1,0.6,0.08,0.62,0.57,0.62C490.08,284.93,494.33,284.93,498.57,284.93z"/>
	<path class="st1" d="M406.9,277.21c-0.74-1.43-1.46-2.84-2.21-4.23c-0.15-0.28-0.09-0.39,0.16-0.56c4.54-2.98,9.49-4.44,14.93-4
		c4.18,0.34,7.74,1.96,10.25,5.46c1.8,2.5,2.39,5.36,2.39,8.38c0.01,7.73,0,15.45,0.01,23.18c0,0.43-0.13,0.53-0.53,0.52
		c-1.27-0.03-2.54-0.03-3.81,0c-0.42,0.01-0.52-0.12-0.54-0.52c-0.06-0.94-0.19-1.88-0.3-2.93c-1.12,1.21-2.31,2.19-3.72,2.78
		c-5.59,2.35-10.99,2.19-15.93-1.61c-2.6-2-3.88-4.82-4.17-8.06c-0.35-3.96,0.77-7.42,3.74-10.16c2.11-1.94,4.67-2.96,7.49-3.31
		c3.07-0.38,6.06-0.05,8.88,1.29c1.25,0.59,2.36,1.38,3.35,2.35c0.18-0.11,0.09-0.29,0.09-0.43c-0.04-1.61,0.1-3.21-0.1-4.82
		c-0.45-3.7-3.11-6.44-6.8-7.01c-3.75-0.58-7.19,0.35-10.48,2.07C408.68,276.07,407.8,276.64,406.9,277.21z M418,302.04
		c0.98,0.02,2.1-0.11,3.2-0.4c3.42-0.92,5.68-3.61,5.79-6.85c0.12-3.77-1.72-6.45-5.28-7.63c-2-0.66-4.06-0.71-6.12-0.39
		c-3.4,0.53-6.34,2.67-6.78,6.38c-0.38,3.14,0.67,5.99,3.7,7.68C414.17,301.75,415.97,302.05,418,302.04z"/>
	<path class="st1" d="M275.21,274.09c1.74-2.37,3.95-4.16,6.76-5.03c4.9-1.51,9.39-0.81,13.08,3.01c1.92,1.99,2.88,4.47,3.31,7.17
		c0.2,1.26,0.24,2.53,0.24,3.8c-0.01,7.43-0.01,14.86,0.01,22.28c0,0.55-0.16,0.64-0.66,0.63c-1.41-0.03-2.82-0.03-4.23,0
		c-0.47,0.01-0.59-0.12-0.58-0.59c0.02-7.47,0.01-14.94,0.01-22.4c0-1.7-0.19-3.36-0.87-4.94c-1.37-3.16-4.41-4.88-7.96-4.69
		c-4.15,0.22-7.79,3.29-8.85,8.07c-0.24,1.07-0.29,2.16-0.29,3.25c0,6.89-0.01,13.78,0.01,20.68c0,0.5-0.13,0.63-0.62,0.62
		c-1.45-0.04-2.9-0.03-4.35,0c-0.4,0.01-0.48-0.12-0.48-0.49c0.01-11.92,0.01-23.83-0.01-35.75c0-0.49,0.16-0.54,0.57-0.54
		c1.39,0.02,2.78,0.03,4.17,0c0.43-0.01,0.59,0.09,0.58,0.55c-0.03,1.44-0.01,2.89-0.01,4.33
		C275.1,274.06,275.15,274.07,275.21,274.09z"/>
	<path class="st1" d="M458.37,268.35c4.53,0,8.61,1.17,12.14,3.98c1.99,1.58,3.49,3.56,4.66,5.8c0.18,0.35,0.09,0.47-0.23,0.61
		c-1.32,0.58-2.64,1.17-3.94,1.79c-0.34,0.16-0.45,0.05-0.62-0.24c-1.96-3.53-4.88-5.78-8.86-6.58
		c-8.53-1.71-15.37,3.72-16.54,11.17c-0.73,4.65,0.16,8.9,3.39,12.46c2.82,3.11,6.41,4.48,10.59,4.35c3.78-0.12,7.05-1.39,9.61-4.25
		c0.77-0.86,1.43-1.81,1.93-2.85c0.2-0.41,0.38-0.41,0.75-0.24c1.3,0.59,2.6,1.16,3.92,1.69c0.48,0.19,0.49,0.38,0.27,0.81
		c-2.74,5.26-7.09,8.4-12.86,9.52c-4.39,0.86-8.71,0.51-12.76-1.52c-5.83-2.92-9.22-7.68-10.18-14.1
		c-0.81-5.39,0.18-10.44,3.45-14.89c3.17-4.32,7.5-6.71,12.81-7.37C456.74,268.38,457.59,268.39,458.37,268.35z"/>
	<path class="st1" d="M189.32,268.36c3.47-0.03,6.37,0.85,8.83,2.96c1.67,1.43,2.76,3.24,3.46,5.31c0.12,0.35,0,0.44-0.29,0.54
		c-1.25,0.44-2.5,0.87-3.73,1.36c-0.41,0.16-0.53,0.03-0.67-0.32c-1.03-2.64-2.88-4.41-5.69-4.97c-2.35-0.47-4.6-0.17-6.52,1.41
		c-2.39,1.96-2.21,6.01,0.34,7.75c1.6,1.1,3.42,1.73,5.24,2.33c2.88,0.95,5.69,2.07,8.19,3.84c3.09,2.18,4.05,5.26,3.72,8.85
		c-0.4,4.39-3.71,7.91-8.79,8.99c-3.27,0.7-6.52,0.53-9.62-0.82c-3.8-1.66-6.01-4.71-7.24-8.57c-0.08-0.27,0.02-0.34,0.25-0.41
		c1.39-0.47,2.77-0.94,4.15-1.44c0.35-0.13,0.39,0.03,0.48,0.29c0.61,1.82,1.54,3.42,3.04,4.67c2.94,2.46,7.73,2.61,10.54,0.33
		c1.79-1.46,2.48-3.99,1.64-6.14c-0.56-1.44-1.74-2.28-3.08-2.9c-1.54-0.72-3.17-1.23-4.77-1.8c-2.39-0.85-4.7-1.87-6.82-3.29
		c-2.84-1.89-4.11-4.55-4.06-7.92c0.07-4.73,3.21-8.5,8.07-9.63C187.17,268.48,188.37,268.34,189.32,268.36z"/>
	<path class="st1" d="M340.4,268.36c3.21-0.03,6.1,0.85,8.56,2.96c1.67,1.43,2.76,3.24,3.46,5.31c0.12,0.36-0.02,0.44-0.3,0.54
		c-1.25,0.44-2.5,0.87-3.73,1.36c-0.42,0.16-0.53,0.02-0.66-0.33c-1.04-2.64-2.88-4.4-5.69-4.96c-2.35-0.47-4.6-0.16-6.52,1.41
		c-2.39,1.96-2.2,6.01,0.35,7.75c1.58,1.08,3.38,1.72,5.19,2.31c2.88,0.95,5.69,2.06,8.2,3.82c3.14,2.2,4.15,5.31,3.74,8.94
		c-0.46,4.17-2.94,6.85-6.73,8.3c-3.69,1.42-7.47,1.4-11.16,0c-4.05-1.55-6.42-4.67-7.71-8.72c-0.09-0.27-0.05-0.38,0.23-0.47
		c1.39-0.46,2.77-0.93,4.15-1.44c0.43-0.16,0.41,0.12,0.49,0.35c0.69,2.01,1.77,3.76,3.55,5.01c2.98,2.09,7.4,2.06,10.02-0.07
		c1.79-1.46,2.48-4,1.64-6.14c-0.57-1.44-1.75-2.28-3.08-2.9c-1.54-0.72-3.17-1.23-4.77-1.8c-2.34-0.83-4.59-1.83-6.68-3.19
		c-2.91-1.9-4.26-4.57-4.21-8.03c0.08-4.73,3.21-8.5,8.08-9.63c0.4-0.09,0.81-0.17,1.22-0.24
		C338.81,268.38,339.6,268.36,340.4,268.36z"/>
	<path class="st1" d="M314.93,285.23c0,3.18,0,6.35,0,9.53c0,0.95,0.04,1.9,0.22,2.84c0.45,2.4,1.66,3.48,4.11,3.68
		c1.17,0.09,2.34,0.12,3.5-0.1c0.33-0.06,0.4,0.05,0.4,0.36c-0.01,1.43-0.01,2.86,0,4.29c0,0.27-0.08,0.4-0.35,0.43
		c-2.2,0.24-4.39,0.39-6.57-0.14c-3.58-0.87-5.52-3.26-6.31-6.74c-0.35-1.52-0.42-3.06-0.42-4.61c-0.01-6.73-0.01-13.46,0.01-20.2
		c0-0.5-0.13-0.62-0.62-0.61c-1.61,0.03-3.22,0-4.83,0.02c-0.39,0-0.56-0.07-0.55-0.51c0.03-1.25,0.03-2.5,0-3.75
		c-0.01-0.4,0.12-0.49,0.5-0.49c1.35-0.01,2.7,0.1,4.04-0.1c1.27-0.19,1.81-0.74,1.98-1.99c0.23-1.72,0.11-3.45,0.12-5.18
		c0-0.49,0.11-0.64,0.61-0.62c1.13,0.04,2.26,0.03,3.4,0c0.43-0.01,0.57,0.08,0.56,0.54c-0.03,2.22,0,4.45-0.02,6.67
		c-0.01,0.49,0.11,0.64,0.62,0.64c2.42-0.03,4.85,0,7.27-0.02c0.42,0,0.58,0.07,0.57,0.54c-0.04,1.27-0.03,2.54,0,3.81
		c0.01,0.37-0.11,0.46-0.47,0.46c-2.38-0.02-4.77,0.01-7.15-0.02c-0.48-0.01-0.63,0.09-0.62,0.6
		C314.94,278.12,314.93,281.68,314.93,285.23z"/>
	<path class="st1" d="M209.19,287.52c0-5.9,0.01-11.8-0.01-17.7c0-0.49,0.07-0.68,0.63-0.66c1.41,0.05,2.82,0.04,4.23,0
		c0.47-0.01,0.6,0.11,0.59,0.59c-0.02,5.64-0.01,11.28-0.01,16.92c0,6.22-0.01,12.43,0.01,18.65c0,0.49-0.11,0.63-0.61,0.62
		c-1.43-0.04-2.86-0.03-4.29,0c-0.45,0.01-0.55-0.11-0.55-0.55C209.19,299.44,209.19,293.48,209.19,287.52z"/>
</g>
</svg>
