<svg width="38" height="38" viewBox="0 0 38 38" fill="none" xmlns="http://www.w3.org/2000/svg">
<g clip-path="url(#clip0_129_724)">
<path fill-rule="evenodd" clip-rule="evenodd" d="M30.0599 26.8301C29.602 28.1263 27.7818 29.1986 26.3302 29.5122C25.3365 29.7231 24.0407 29.89 19.6745 28.0807C14.7706 26.049 7.961 18.8118 7.961 13.9958C7.961 11.5441 9.3746 8.68916 11.8465 8.68916C13.0359 8.68916 13.2981 8.71235 13.6895 9.65122C14.1474 10.7574 15.2646 13.4826 15.3976 13.762C15.9467 14.9081 14.839 15.579 14.0353 16.5768C13.7788 16.877 13.4881 17.2018 13.813 17.7605C14.136 18.3079 15.2532 20.1287 16.8948 21.5902C19.0152 23.4794 20.7347 24.0825 21.3503 24.3391C21.8082 24.5292 22.3554 24.4849 22.6898 24.1276C23.1135 23.6696 23.6398 22.9096 24.1756 22.1608C24.5537 21.6248 25.0344 21.5579 25.5379 21.7479C25.878 21.8658 30.2005 23.8732 30.3829 24.1944C30.5178 24.4282 30.5178 25.5339 30.0599 26.8301ZM19.0038 0H18.9943C8.51959 0 0 8.52217 0 19C0 23.1547 1.33951 27.0091 3.61761 30.1356L1.25021 37.1957L8.55191 34.8624C11.5558 36.8504 15.1411 38 19.0038 38C29.4785 38 38 29.4778 38 19C38 8.52217 29.4785 0 19.0038 0Z" fill="white"/>
</g>
<defs>
<clipPath id="clip0_129_724">
<rect width="38" height="38" fill="white"/>
</clipPath>
</defs>
</svg>
